<svg xmlns="http://www.w3.org/2000/svg" version="1.1" xmlns:xlink="http://www.w3.org/1999/xlink" xmlns:svgjs="http://svgjs.com/svgjs" width="256" height="256" x="0" y="0" viewBox="0 0 24 24" style="enable-background:new 0 0 512 512" xml:space="preserve"><g><path d="m17 10a7 7 0 1 0 7 7 7.008 7.008 0 0 0 -7-7zm2.707 9.707a1 1 0 0 1 -1.414 0l-2-2a1 1 0 0 1 -.293-.707v-3a1 1 0 0 1 2 0v2.586l1.707 1.707a1 1 0 0 1 0 1.414zm-11.233-8.707a5.5 5.5 0 1 1 5.5-5.5 5.506 5.506 0 0 1 -5.5 5.5zm2.882 13h-10.356a1 1 0 0 1 -1-1.011 10.275 10.275 0 0 1 6.553-9.6 6.685 6.685 0 0 1 2.394-.384 9.087 9.087 0 0 0 -.424.995 8.853 8.853 0 0 0 -.523 3 8.983 8.983 0 0 0 3.356 7z" fill="#04d9e3" data-original="#000000"></path></g></svg>